<?xml version="1.0" encoding="utf-8"?>
<!-- Generator: Adobe Illustrator 19.0.0, SVG Export Plug-In . SVG Version: 6.00 Build 0)  -->
<svg version="1.1" id="Layer_1" xmlns="http://www.w3.org/2000/svg" xmlns:xlink="http://www.w3.org/1999/xlink" x="0px" y="0px"
	 viewBox="0 0 96 96" style="enable-background:new 0 0 96 96;" xml:space="preserve">
<style type="text/css">
	.st0{fill:#333333;}
</style>
<g id="XMLID_2_">
	<path id="XMLID_14_" class="st0" d="M37.4,66v-6.3c0-0.3-0.1-0.6-0.3-0.8c-0.2-0.2-0.5-0.3-0.8-0.3H25.8c-0.3,0-0.6,0.1-0.8,0.3
		c-0.2,0.2-0.3,0.5-0.3,0.8V66c0,0.3,0.1,0.6,0.3,0.8c0.2,0.2,0.5,0.3,0.8,0.3h10.6c0.3,0,0.6-0.1,0.8-0.3
		C37.3,66.5,37.4,66.3,37.4,66z M37.4,53.3v-6.3c0-0.3-0.1-0.6-0.3-0.8c-0.2-0.2-0.5-0.3-0.8-0.3H25.8c-0.3,0-0.6,0.1-0.8,0.3
		c-0.2,0.2-0.3,0.5-0.3,0.8v6.3c0,0.3,0.1,0.6,0.3,0.8c0.2,0.2,0.5,0.3,0.8,0.3h10.6c0.3,0,0.6-0.1,0.8-0.3
		C37.3,53.9,37.4,53.6,37.4,53.3z M54.3,66v-6.3c0-0.3-0.1-0.6-0.3-0.8c-0.2-0.2-0.5-0.3-0.8-0.3H42.7c-0.3,0-0.6,0.1-0.8,0.3
		c-0.2,0.2-0.3,0.5-0.3,0.8V66c0,0.3,0.1,0.6,0.3,0.8c0.2,0.2,0.5,0.3,0.8,0.3h10.6c0.3,0,0.6-0.1,0.8-0.3
		C54.2,66.5,54.3,66.3,54.3,66z M37.4,40.6v-6.3c0-0.3-0.1-0.6-0.3-0.8c-0.2-0.2-0.5-0.3-0.8-0.3H25.8c-0.3,0-0.6,0.1-0.8,0.3
		c-0.2,0.2-0.3,0.5-0.3,0.8v6.3c0,0.3,0.1,0.6,0.3,0.8c0.2,0.2,0.5,0.3,0.8,0.3h10.6c0.3,0,0.6-0.1,0.8-0.3
		C37.3,41.2,37.4,40.9,37.4,40.6z M54.3,53.3v-6.3c0-0.3-0.1-0.6-0.3-0.8c-0.2-0.2-0.5-0.3-0.8-0.3H42.7c-0.3,0-0.6,0.1-0.8,0.3
		c-0.2,0.2-0.3,0.5-0.3,0.8v6.3c0,0.3,0.1,0.6,0.3,0.8c0.2,0.2,0.5,0.3,0.8,0.3h10.6c0.3,0,0.6-0.1,0.8-0.3
		C54.2,53.9,54.3,53.6,54.3,53.3z M71.3,66v-6.3c0-0.3-0.1-0.6-0.3-0.8c-0.2-0.2-0.5-0.3-0.8-0.3H59.6c-0.3,0-0.6,0.1-0.8,0.3
		c-0.2,0.2-0.3,0.5-0.3,0.8V66c0,0.3,0.1,0.6,0.3,0.8c0.2,0.2,0.5,0.3,0.8,0.3h10.6c0.3,0,0.6-0.1,0.8-0.3
		C71.2,66.5,71.3,66.3,71.3,66z M54.3,40.6v-6.3c0-0.3-0.1-0.6-0.3-0.8c-0.2-0.2-0.5-0.3-0.8-0.3H42.7c-0.3,0-0.6,0.1-0.8,0.3
		c-0.2,0.2-0.3,0.5-0.3,0.8v6.3c0,0.3,0.1,0.6,0.3,0.8c0.2,0.2,0.5,0.3,0.8,0.3h10.6c0.3,0,0.6-0.1,0.8-0.3
		C54.2,41.2,54.3,40.9,54.3,40.6z M71.3,53.3v-6.3c0-0.3-0.1-0.6-0.3-0.8s-0.5-0.3-0.8-0.3H59.6c-0.3,0-0.6,0.1-0.8,0.3
		c-0.2,0.2-0.3,0.5-0.3,0.8v6.3c0,0.3,0.1,0.6,0.3,0.8c0.2,0.2,0.5,0.3,0.8,0.3h10.6c0.3,0,0.6-0.1,0.8-0.3
		C71.2,53.9,71.3,53.6,71.3,53.3z M71.3,40.6v-6.3c0-0.3-0.1-0.6-0.3-0.8s-0.5-0.3-0.8-0.3H59.6c-0.3,0-0.6,0.1-0.8,0.3
		c-0.2,0.2-0.3,0.5-0.3,0.8v6.3c0,0.3,0.1,0.6,0.3,0.8c0.2,0.2,0.5,0.3,0.8,0.3h10.6c0.3,0,0.6-0.1,0.8-0.3
		C71.2,41.2,71.3,40.9,71.3,40.6z M75.5,30v36c0,1.5-0.5,2.7-1.6,3.7c-1,1-2.3,1.6-3.7,1.6H25.8c-1.5,0-2.7-0.5-3.7-1.6
		c-1-1-1.6-2.3-1.6-3.7V30c0-1.5,0.5-2.7,1.6-3.7c1-1,2.3-1.6,3.7-1.6h44.4c1.5,0,2.7,0.5,3.7,1.6C75,27.3,75.5,28.6,75.5,30z"/>
</g>
</svg>
